<mxGraphModel dx="738" dy="914" grid="1" gridSize="10" guides="1" tooltips="1" connect="1" arrows="1" fold="1" page="1" pageScale="1" pageWidth="827" pageHeight="1169" math="0" shadow="0"><root><mxCell id="0"/><mxCell id="1" parent="0"/><mxCell id="19" value="" style="rounded=0;whiteSpace=wrap;html=1;" parent="1" vertex="1"><mxGeometry x="140" y="410" width="453" height="400" as="geometry"/></mxCell><mxCell id="hA-Zm_iwx_gSBit0KiQk-16" value="" style="rounded=0;whiteSpace=wrap;html=1;dashed=1;" parent="1" vertex="1"><mxGeometry x="10" y="50" width="740" height="310" as="geometry"/></mxCell><mxCell id="hA-Zm_iwx_gSBit0KiQk-12" value="" style="edgeStyle=orthogonalEdgeStyle;rounded=0;orthogonalLoop=1;jettySize=auto;html=1;" parent="1" source="hA-Zm_iwx_gSBit0KiQk-6" target="hA-Zm_iwx_gSBit0KiQk-5" edge="1"><mxGeometry relative="1" as="geometry"><Array as="points"><mxPoint x="450" y="260"/><mxPoint x="450" y="260"/></Array></mxGeometry></mxCell><mxCell id="hA-Zm_iwx_gSBit0KiQk-6" value="" style="rounded=0;whiteSpace=wrap;html=1;" parent="1" vertex="1"><mxGeometry x="230" y="90" width="460" height="150" as="geometry"/></mxCell><mxCell id="hA-Zm_iwx_gSBit0KiQk-8" style="edgeStyle=orthogonalEdgeStyle;rounded=0;orthogonalLoop=1;jettySize=auto;html=1;exitX=1;exitY=0.5;exitDx=0;exitDy=0;entryX=0;entryY=0.5;entryDx=0;entryDy=0;" parent="1" source="hA-Zm_iwx_gSBit0KiQk-1" target="hA-Zm_iwx_gSBit0KiQk-6" edge="1"><mxGeometry relative="1" as="geometry"/></mxCell><mxCell id="hA-Zm_iwx_gSBit0KiQk-1" value="class文件" style="rounded=0;whiteSpace=wrap;html=1;" parent="1" vertex="1"><mxGeometry x="50" y="135" width="120" height="60" as="geometry"/></mxCell><mxCell id="hA-Zm_iwx_gSBit0KiQk-10" style="edgeStyle=orthogonalEdgeStyle;rounded=0;orthogonalLoop=1;jettySize=auto;html=1;exitX=1;exitY=0.5;exitDx=0;exitDy=0;entryX=0;entryY=0.5;entryDx=0;entryDy=0;" parent="1" source="hA-Zm_iwx_gSBit0KiQk-2" target="hA-Zm_iwx_gSBit0KiQk-3" edge="1"><mxGeometry relative="1" as="geometry"/></mxCell><mxCell id="hA-Zm_iwx_gSBit0KiQk-2" value="加载&lt;br&gt;Loading" style="rounded=0;whiteSpace=wrap;html=1;" parent="1" vertex="1"><mxGeometry x="250" y="140" width="120" height="60" as="geometry"/></mxCell><mxCell id="hA-Zm_iwx_gSBit0KiQk-11" value="" style="edgeStyle=orthogonalEdgeStyle;rounded=0;orthogonalLoop=1;jettySize=auto;html=1;" parent="1" source="hA-Zm_iwx_gSBit0KiQk-3" target="hA-Zm_iwx_gSBit0KiQk-4" edge="1"><mxGeometry relative="1" as="geometry"/></mxCell><mxCell id="hA-Zm_iwx_gSBit0KiQk-3" value="连接&lt;br&gt;（Linking）" style="rounded=0;whiteSpace=wrap;html=1;" parent="1" vertex="1"><mxGeometry x="400" y="140" width="120" height="60" as="geometry"/></mxCell><mxCell id="hA-Zm_iwx_gSBit0KiQk-4" value="初始化" style="rounded=0;whiteSpace=wrap;html=1;" parent="1" vertex="1"><mxGeometry x="550" y="140" width="120" height="60" as="geometry"/></mxCell><mxCell id="hA-Zm_iwx_gSBit0KiQk-13" value="" style="edgeStyle=orthogonalEdgeStyle;rounded=0;orthogonalLoop=1;jettySize=auto;html=1;entryX=0.5;entryY=1;entryDx=0;entryDy=0;" parent="1" source="hA-Zm_iwx_gSBit0KiQk-5" target="hA-Zm_iwx_gSBit0KiQk-6" edge="1"><mxGeometry relative="1" as="geometry"><mxPoint x="460" y="250" as="targetPoint"/></mxGeometry></mxCell><mxCell id="hA-Zm_iwx_gSBit0KiQk-5" value="运行时数据区" style="rounded=0;whiteSpace=wrap;html=1;" parent="1" vertex="1"><mxGeometry x="340" y="270" width="240" height="60" as="geometry"/></mxCell><mxCell id="hA-Zm_iwx_gSBit0KiQk-15" value="类加载器子系统" style="text;html=1;align=center;verticalAlign=middle;resizable=0;points=[];autosize=1;strokeColor=#b85450;fillColor=#f8cecc;" parent="1" vertex="1"><mxGeometry x="410" y="100" width="100" height="20" as="geometry"/></mxCell><mxCell id="hA-Zm_iwx_gSBit0KiQk-17" value="类加载器子系统的位置和作用" style="text;html=1;align=center;verticalAlign=middle;resizable=0;points=[];autosize=1;strokeColor=none;fillColor=none;fontSize=18;" parent="1" vertex="1"><mxGeometry x="10" y="20" width="250" height="30" as="geometry"/></mxCell><mxCell id="2" value="&lt;font style=&quot;font-size: 18px&quot;&gt;类加载机制双亲委派模型&lt;/font&gt;" style="text;html=1;align=center;verticalAlign=middle;resizable=0;points=[];autosize=1;strokeColor=none;" parent="1" vertex="1"><mxGeometry x="10" y="380" width="210" height="20" as="geometry"/></mxCell><mxCell id="6" style="edgeStyle=none;html=1;entryX=0.5;entryY=0;entryDx=0;entryDy=0;" parent="1" source="3" target="5" edge="1"><mxGeometry relative="1" as="geometry"/></mxCell><mxCell id="3" value="启动类加载器&lt;br&gt;Bootstrap Class Loader" style="rounded=0;whiteSpace=wrap;html=1;" parent="1" vertex="1"><mxGeometry x="290" y="440" width="143" height="60" as="geometry"/></mxCell><mxCell id="13" style="edgeStyle=none;html=1;exitX=0.5;exitY=1;exitDx=0;exitDy=0;entryX=0.5;entryY=0;entryDx=0;entryDy=0;" parent="1" source="5" target="9" edge="1"><mxGeometry relative="1" as="geometry"/></mxCell><mxCell id="5" value="拓展类加载器" style="rounded=0;whiteSpace=wrap;html=1;" parent="1" vertex="1"><mxGeometry x="300" y="525" width="123" height="60" as="geometry"/></mxCell><mxCell id="15" style="edgeStyle=none;html=1;exitX=0.5;exitY=1;exitDx=0;exitDy=0;entryX=0.5;entryY=0;entryDx=0;entryDy=0;" parent="1" source="9" target="14" edge="1"><mxGeometry relative="1" as="geometry"/></mxCell><mxCell id="18" style="edgeStyle=none;html=1;exitX=0.5;exitY=1;exitDx=0;exitDy=0;entryX=0.5;entryY=0;entryDx=0;entryDy=0;" parent="1" source="9" target="17" edge="1"><mxGeometry relative="1" as="geometry"/></mxCell><mxCell id="9" value="应用程序类加载器&lt;br&gt;Application Class Loader" style="whiteSpace=wrap;html=1;" parent="1" vertex="1"><mxGeometry x="290" y="620" width="143" height="60" as="geometry"/></mxCell><mxCell id="14" value="自定义类加载器&lt;br&gt;User Class Loader" style="rounded=0;whiteSpace=wrap;html=1;" parent="1" vertex="1"><mxGeometry x="200" y="730" width="123" height="60" as="geometry"/></mxCell><mxCell id="17" value="自定义类加载器&lt;br&gt;User Class Loader" style="rounded=0;whiteSpace=wrap;html=1;" parent="1" vertex="1"><mxGeometry x="414" y="730" width="123" height="60" as="geometry"/></mxCell></root></mxGraphModel>